<?xml version="1.0" encoding="UTF-8"?>
<svg xmlns="http://www.w3.org/2000/svg" width="64" height="64" viewBox="0 0 64 64" role="img" aria-label="Hearts open two hearts">
  <!-- Transparent background, two overlapping hearts -->
  <g transform="translate(32 34)">
    <path d="M-2 10  -9 4c-3-3-4-7-2-10 2-3 6-3 8 0 1 2 3 2 4 0 2-3 6-3 8 0 2 3 1 7-2 10z" fill="#f97316"/>
    <path d="M2 10  9 4c3-3 4-7 2-10-2-3-6-3-8 0-1 2-3 2-4 0-2-3-6-3-8 0-2 3-1 7 2 10z" fill="#fb7185" fill-opacity="0.9"/>
  </g>
</svg>
