<?xml version="1.0" encoding="UTF-8"?>
<svg xmlns="http://www.w3.org/2000/svg" width="64" height="64" viewBox="0 0 64 64" role="img" aria-label="Transphobia cracked trans heart">
  <!-- Transparent background, cracked heart in trans colors -->
  <g transform="translate(32 34)">
    <path d="M0 16  -8 8c-4-4-6-10-3-15 2-3 7-4 9-1 1 1 2 2 3 3 1-1 2-2 3-3 2-3 7-2 9 1 3 5 1 11-3 15z" fill="#5BCEFA"/>
    <path d="M0 12  -6 6c-3-3-4-7-2-10 2-3 6-3 8 0 1 2 3 2 4 0 2-3 6-3 8 0 2 3 1 7-2 10z" fill="#F5A9B8" fill-opacity="0.9"/>
    <!-- crack -->
    <path d="M-2 -2 L0 2 L-1 6 L2 10" fill="none" stroke="#020617" stroke-width="1.6"/>
  </g>
</svg>
