<svg width="1600" height="900" viewBox="0 0 1600 900" fill="none" xmlns="http://www.w3.org/2000/svg">
  <defs>
    <linearGradient id="bgGradient" x1="0" y1="0" x2="1" y2="1">
      <stop offset="0%" stop-color="#FFE5F2"/>
      <stop offset="40%" stop-color="#FFD1EC"/>
      <stop offset="75%" stop-color="#FDE1FF"/>
      <stop offset="100%" stop-color="#F8E7FF"/>
    </linearGradient>

    <radialGradient id="blobPink" cx="0" cy="0" r="1" gradientUnits="userSpaceOnUse"
                    gradientTransform="translate(350 260) rotate(45) scale(420 320)">
      <stop offset="0" stop-color="#FF8ABB" stop-opacity="0.9"/>
      <stop offset="0.45" stop-color="#FFB6D9" stop-opacity="0.7"/>
      <stop offset="1" stop-color="#FFE5F5" stop-opacity="0"/>
    </radialGradient>

    <radialGradient id="blobLavender" cx="0" cy="0" r="1" gradientUnits="userSpaceOnUse"
                    gradientTransform="translate(1240 260) rotate(135) scale(460 360)">
      <stop offset="0" stop-color="#C4B5FD" stop-opacity="0.95"/>
      <stop offset="0.4" stop-color="#E9D5FF" stop-opacity="0.75"/>
      <stop offset="1" stop-color="#F3E8FF" stop-opacity="0"/>
    </radialGradient>

    <radialGradient id="blobPeach" cx="0" cy="0" r="1" gradientUnits="userSpaceOnUse"
                    gradientTransform="translate(880 760) rotate(90) scale(520 300)">
      <stop offset="0" stop-color="#FFB7A2" stop-opacity="0.85"/>
      <stop offset="0.45" stop-color="#FFD4C7" stop-opacity="0.7"/>
      <stop offset="1" stop-color="#FFEDE6" stop-opacity="0"/>
    </radialGradient>

    <radialGradient id="highlight" cx="0" cy="0" r="1" gradientUnits="userSpaceOnUse"
                    gradientTransform="translate(200 120) scale(260 180)">
      <stop offset="0" stop-color="#FFFFFF" stop-opacity="0.9"/>
      <stop offset="1" stop-color="#FFFFFF" stop-opacity="0"/>
    </radialGradient>

    <filter id="softGlow" x="-20%" y="-20%" width="140%" height="140%" color-interpolation-filters="sRGB">
      <feGaussianBlur stdDeviation="18" result="blur"/>
      <feColorMatrix in="blur" type="matrix" values="0 0 0 0 1  0 0 0 0 0.84  0 0 0 0 0.93  0 0 0 0.6 0"/>
    </filter>

    <filter id="sparkleBlur" x="-50%" y="-50%" width="200%" height="200%" color-interpolation-filters="sRGB">
      <feGaussianBlur stdDeviation="1.2"/>
    </filter>

    <linearGradient id="sparkleStroke" x1="0" y1="0" x2="1" y2="1">
      <stop offset="0" stop-color="#FFFFFF"/>
      <stop offset="1" stop-color="#F9A8D4"/>
    </linearGradient>
  </defs>

  <!-- base wash -->
  <rect width="1600" height="900" fill="url(#bgGradient)"/>

  <!-- big dreamy blobs -->
  <ellipse cx="360" cy="260" rx="440" ry="340" fill="url(#blobPink)"/>
  <ellipse cx="1240" cy="260" rx="480" ry="360" fill="url(#blobLavender)"/>
  <ellipse cx="880" cy="760" rx="540" ry="320" fill="url(#blobPeach)"/>

  <!-- subtle highlight in the top-left -->
  <circle cx="210" cy="140" r="220" fill="url(#highlight)" filter="url(#softGlow)"/>

  <!-- satin-like soft folds -->
  <path d="M0 140C180 110 340 140 520 190C740 252 970 230 1180 200C1350 176 1490 162 1600 170V0H0V140Z"
        fill="#FFFFFF" fill-opacity="0.30"/>
  <path d="M0 420C150 460 320 470 520 450C760 426 1000 456 1200 490C1370 520 1500 538 1600 536V260C1490 252 1360 252 1200 270C970 296 760 322 540 320C330 318 170 292 0 268V420Z"
        fill="#FFFFFF" fill-opacity="0.26"/>
  <path d="M0 780C200 760 360 736 540 732C780 726 1010 760 1230 792C1390 816 1505 832 1600 836V560C1506 554 1384 542 1220 520C1020 494 800 484 588 492C392 498 230 518 0 546V780Z"
        fill="#FFFFFF" fill-opacity="0.20"/>

  <!-- sparkles -->
  <g stroke="url(#sparkleStroke)" stroke-width="1.4" stroke-linecap="round">
    <g filter="url(#sparkleBlur)">
      <path d="M210 260L218 268M218 260L210 268"/>
      <path d="M520 180L530 190M530 180L520 190"/>
      <path d="M980 150L990 160M990 150L980 160"/>
      <path d="M1370 320L1382 332M1382 320L1370 332"/>
      <path d="M1240 540L1252 552M1252 540L1240 552"/>
      <path d="M620 620L630 630M630 620L620 630"/>
      <path d="M340 520L350 530M350 520L340 530"/>
    </g>
  </g>

  <!-- tiny floating dots -->
  <g fill="#FDF2FF" fill-opacity="0.9">
    <circle cx="180" cy="340" r="2"/>
    <circle cx="280" cy="380" r="1.8"/>
    <circle cx="460" cy="290" r="2.2"/>
    <circle cx="720" cy="220" r="1.7"/>
    <circle cx="940" cy="280" r="2"/>
    <circle cx="1180" cy="360" r="1.6"/>
    <circle cx="1320" cy="240" r="2.3"/>
    <circle cx="1500" cy="320" r="1.9"/>
    <circle cx="1060" cy="620" r="1.8"/>
    <circle cx="840" cy="670" r="1.5"/>
    <circle cx="620" cy="710" r="2"/>
    <circle cx="420" cy="650" r="1.6"/>
  </g>
</svg>
